# xmcd
#
# Track frame offsets:
#	150
#	16425
#	27525
#	43725
#	59175
#	76050
#	91875
#	107400
#	121200
#	137100
#
# Disc length: 2091 seconds
#
# Revision: 0
# Processed by: cddbd v1.5PL3 Copyright (c) Steve Scherf et al.
# Submitted via: audiograbber 1.82.02
#
DISCID=8108290a
DTITLE=Scott Carter - Greatest Hits Album
DYEAR=1900
DGENRE=Country
TTITLE0=My Miss America
TTITLE1=Blue-Collar Dollar
TTITLE2=Feed The Children
TTITLE3=Love-Starved Heart
TTITLE4=King Of Columbus Avenue
TTITLE5=Love Keep Knocking On Your Heart
TTITLE6=When I Lose My Touch, You Toch Me
TTITLE7=Billy Ray
TTITLE8=Everyday Heros
TTITLE9=We Love The U.S.A.
EXTD=
EXTT0=
EXTT1=
EXTT2=
EXTT3=
EXTT4=
EXTT5=
EXTT6=
EXTT7=
EXTT8=
EXTT9=
PLAYORDER=
